{"asset":{"generator":"FME 2023.1.2.0","version":"2.0"},"materials":[{"name":"default_material","pbrMetallicRoughness":{"baseColorFactor":[1,1,1,1],"roughnessFactor":0.30000000000000004,"metallicFactor":0.5}}],"meshes":[{"primitives":[{"attributes":{"POSITION":0,"COLOR_0":1},"material":0,"mode":3}]}],"nodes":[{"mesh":0}],"scenes":[{"nodes":[0]}],"scene":0,"accessors":[{"bufferView":0,"byteOffset":0,"componentType":5126,"count":75,"type":"VEC3","min":[705.792724609375,-50,1352.1534423828125],"max":[786.1365966796875,0,1844.8304443359375]},{"bufferView":1,"byteOffset":0,"componentType":5126,"count":75,"type":"VEC3"}],"bufferViews":[{"buffer":0,"byteOffset":0,"byteLength":900,"target":34962},{"buffer":0,"byteOffset":900,"byteLength":900,"target":34962}],"buffers":[{"uri":"data:application/octet-stream;base64,","byteLength":1800}]}