{"asset":{"generator":"FME 2023.1.2.0","version":"2.0"},"materials":[{"name":"default_material","pbrMetallicRoughness":{"baseColorFactor":[1,1,1,1],"roughnessFactor":0.30000000000000004,"metallicFactor":0.5}}],"meshes":[{"primitives":[{"attributes":{"POSITION":0,"COLOR_0":1},"material":0,"mode":3}]}],"nodes":[{"mesh":0}],"scenes":[{"nodes":[0]}],"scene":0,"accessors":[{"bufferView":0,"byteOffset":0,"componentType":5126,"count":328,"type":"VEC3","min":[-378.8783264160156,-9.56213092803955,1231.709228515625],"max":[657.45556640625,200,2270.259521484375]},{"bufferView":1,"byteOffset":0,"componentType":5126,"count":328,"type":"VEC3"}],"bufferViews":[{"buffer":0,"byteOffset":0,"byteLength":3936,"target":34962},{"buffer":0,"byteOffset":3936,"byteLength":3936,"target":34962}],"buffers":[{"uri":"data:application/octet-stream;base64,","byteLength":7872}]}