{"asset":{"generator":"FME 2023.1.2.0","version":"2.0"},"materials":[{"name":"default_material","pbrMetallicRoughness":{"baseColorFactor":[1,1,1,1],"roughnessFactor":0.30000000000000004,"metallicFactor":0.5}}],"meshes":[{"primitives":[{"attributes":{"POSITION":0,"COLOR_0":1},"material":0,"mode":3}]}],"nodes":[{"mesh":0}],"scenes":[{"nodes":[0]}],"scene":0,"accessors":[{"bufferView":0,"byteOffset":0,"componentType":5126,"count":236,"type":"VEC3","min":[568.499755859375,100,808.5853271484375],"max":[2008.870849609375,250,1241.8240966796875]},{"bufferView":1,"byteOffset":0,"componentType":5126,"count":236,"type":"VEC3"}],"bufferViews":[{"buffer":0,"byteOffset":0,"byteLength":2832,"target":34962},{"buffer":0,"byteOffset":2832,"byteLength":2832,"target":34962}],"buffers":[{"uri":"data:application/octet-stream;base64,","byteLength":5664}]}