{"asset":{"generator":"FME 2023.1.2.0","version":"2.0"},"materials":[{"name":"default_material","pbrMetallicRoughness":{"baseColorFactor":[1,1,1,1],"roughnessFactor":0.30000000000000004,"metallicFactor":0.5}}],"meshes":[{"primitives":[{"attributes":{"POSITION":0,"COLOR_0":1},"material":0,"mode":3}]}],"nodes":[{"mesh":0}],"scenes":[{"nodes":[0]}],"scene":0,"accessors":[{"bufferView":0,"byteOffset":0,"componentType":5126,"count":193,"type":"VEC3","min":[568.2736206054688,-50,1250.523681640625],"max":[769.8016967773438,200,2763.77880859375]},{"bufferView":1,"byteOffset":0,"componentType":5126,"count":193,"type":"VEC3"}],"bufferViews":[{"buffer":0,"byteOffset":0,"byteLength":2316,"target":34962},{"buffer":0,"byteOffset":2316,"byteLength":2316,"target":34962}],"buffers":[{"uri":"data:application/octet-stream;base64,","byteLength":4632}]}