{"asset":{"generator":"FME 2023.1.2.0","version":"2.0"},"materials":[{"name":"default_material","pbrMetallicRoughness":{"baseColorFactor":[1,1,1,1],"roughnessFactor":0.30000000000000004,"metallicFactor":0.5}}],"meshes":[{"primitives":[{"attributes":{"POSITION":0,"COLOR_0":1},"material":0,"mode":3}]}],"nodes":[{"mesh":0}],"scenes":[{"nodes":[0]}],"scene":0,"accessors":[{"bufferView":0,"byteOffset":0,"componentType":5126,"count":88,"type":"VEC3","min":[518.353271484375,-50,1183.510986328125],"max":[775.1408081054688,100,1394.8304443359375]},{"bufferView":1,"byteOffset":0,"componentType":5126,"count":88,"type":"VEC3"}],"bufferViews":[{"buffer":0,"byteOffset":0,"byteLength":1056,"target":34962},{"buffer":0,"byteOffset":1056,"byteLength":1056,"target":34962}],"buffers":[{"uri":"data:application/octet-stream;base64,","byteLength":2112}]}