{"asset":{"generator":"FME 2023.1.2.0","version":"2.0"},"materials":[{"name":"default_material","pbrMetallicRoughness":{"baseColorFactor":[1,1,1,1],"roughnessFactor":0.30000000000000004,"metallicFactor":0.5}}],"meshes":[{"primitives":[{"attributes":{"POSITION":0,"COLOR_0":1},"material":0,"mode":3}]}],"nodes":[{"mesh":0}],"scenes":[{"nodes":[0]}],"scene":0,"accessors":[{"bufferView":0,"byteOffset":0,"componentType":5126,"count":100,"type":"VEC3","min":[518.353271484375,-1.9073486328125e-6,1251.823974609375],"max":[657.45556640625,50,1831.994140625]},{"bufferView":1,"byteOffset":0,"componentType":5126,"count":100,"type":"VEC3"}],"bufferViews":[{"buffer":0,"byteOffset":0,"byteLength":1200,"target":34962},{"buffer":0,"byteOffset":1200,"byteLength":1200,"target":34962}],"buffers":[{"uri":"data:application/octet-stream;base64,","byteLength":2400}]}