{"asset":{"generator":"FME 2023.1.2.0","version":"2.0"},"materials":[{"name":"default_material","pbrMetallicRoughness":{"baseColorFactor":[1,1,1,1],"roughnessFactor":0.30000000000000004,"metallicFactor":0.5}}],"meshes":[{"primitives":[{"attributes":{"POSITION":0,"COLOR_0":1},"material":0,"mode":3}]}],"nodes":[{"mesh":0}],"scenes":[{"nodes":[0]}],"scene":0,"accessors":[{"bufferView":0,"byteOffset":0,"componentType":5126,"count":233,"type":"VEC3","min":[567.38134765625,-3.6863018522126367e-6,1717.7171630859375],"max":[1688.17431640625,50,2754.17626953125]},{"bufferView":1,"byteOffset":0,"componentType":5126,"count":233,"type":"VEC3"}],"bufferViews":[{"buffer":0,"byteOffset":0,"byteLength":2796,"target":34962},{"buffer":0,"byteOffset":2796,"byteLength":2796,"target":34962}],"buffers":[{"uri":"data:application/octet-stream;base64,","byteLength":5592}]}