{"asset":{"generator":"FME 2023.1.2.0","version":"2.0"},"materials":[{"name":"default_material","pbrMetallicRoughness":{"baseColorFactor":[1,1,1,1],"roughnessFactor":0.30000000000000004,"metallicFactor":0.5}}],"meshes":[{"primitives":[{"attributes":{"POSITION":0,"COLOR_0":1},"material":0,"mode":3}]}],"nodes":[{"mesh":0}],"scenes":[{"nodes":[0]}],"scene":0,"accessors":[{"bufferView":0,"byteOffset":0,"componentType":5126,"count":159,"type":"VEC3","min":[518.353271484375,50,743.3029174804688],"max":[769.9867553710938,150,1735.074462890625]},{"bufferView":1,"byteOffset":0,"componentType":5126,"count":159,"type":"VEC3"}],"bufferViews":[{"buffer":0,"byteOffset":0,"byteLength":1908,"target":34962},{"buffer":0,"byteOffset":1908,"byteLength":1908,"target":34962}],"buffers":[{"uri":"data:application/octet-stream;base64,","byteLength":3816}]}